HIERARCHY
ROOT root
{
	OFFSET 0.000000 0.000000 0.000000
	CHANNELS 6 Xposition Yposition Zposition Zrotation Yrotation Xrotation
	JOINT lhip
	{
		OFFSET 0.058581 -0.082280 -0.017664
		CHANNELS 3 Zrotation Yrotation Xrotation
		JOINT lknee
		{
			OFFSET 0.043451 -0.386469 0.008037
			CHANNELS 3 Zrotation Yrotation Xrotation
			JOINT lankle
			{
				OFFSET -0.014790 -0.426874 -0.037428
				CHANNELS 3 Zrotation Yrotation Xrotation
				JOINT ltoe
				{
					OFFSET 0.041054 -0.060286 0.122042
					CHANNELS 3 Zrotation Yrotation Xrotation
					End Site
					{
						OFFSET 0.000000 0.000000 0.000000
					}
				}
			}
		}
	}
	JOINT rhip
	{
		OFFSET -0.060310 -0.090513 -0.013543
		CHANNELS 3 Zrotation Yrotation Xrotation
		JOINT rknee
		{
			OFFSET -0.043257 -0.383688 -0.004843
			CHANNELS 3 Zrotation Yrotation Xrotation
			JOINT rankle
			{
				OFFSET 0.019056 -0.420046 -0.034562
				CHANNELS 3 Zrotation Yrotation Xrotation
				JOINT rtoe
				{
					OFFSET -0.034840 -0.062106 0.130323
					CHANNELS 3 Zrotation Yrotation Xrotation
					End Site
					{
						OFFSET 0.000000 0.000000 0.000000
					}
				}
			}
		}
	}
	JOINT lowerback
	{
		OFFSET 0.004439 0.124404 -0.038385
		CHANNELS 3 Zrotation Yrotation Xrotation
		JOINT upperback
		{
			OFFSET 0.004488 0.137956 0.026820
			CHANNELS 3 Zrotation Yrotation Xrotation
			JOINT chest
			{
				OFFSET -0.002265 0.056032 0.002855
				CHANNELS 3 Zrotation Yrotation Xrotation
				JOINT lowerneck
				{
					OFFSET -0.013390 0.211636 -0.033468
					CHANNELS 3 Zrotation Yrotation Xrotation
					JOINT upperneck
					{
						OFFSET 0.010113 0.088937 0.050410
						CHANNELS 3 Zrotation Yrotation Xrotation
						End Site
						{
							OFFSET 0.000000 0.000000 0.000000
						}
					}
				}
				JOINT lclavicle
				{
					OFFSET 0.071702 0.114000 -0.018898
					CHANNELS 3 Zrotation Yrotation Xrotation
					JOINT lshoulder
					{
						OFFSET 0.122921 0.045205 -0.019046
						CHANNELS 3 Zrotation Yrotation Xrotation
						JOINT lelbow
						{
							OFFSET 0.255332 -0.015649 -0.022946
							CHANNELS 3 Zrotation Yrotation Xrotation
							JOINT lwrist
							{
								OFFSET 0.265709 0.012698 -0.007375
								CHANNELS 3 Zrotation Yrotation Xrotation
								End Site
								{
									OFFSET 0.000000 0.000000 0.000000
								}
							}
						}
					}
				}
				JOINT rclavicle
				{
					OFFSET -0.082954 0.112472 -0.023707
					CHANNELS 3 Zrotation Yrotation Xrotation
					JOINT rshoulder
					{
						OFFSET -0.113228 0.046853 -0.008472
						CHANNELS 3 Zrotation Yrotation Xrotation
						JOINT relbow
						{
							OFFSET -0.260127 -0.014369 -0.031269
							CHANNELS 3 Zrotation Yrotation Xrotation
							JOINT rwrist
							{
								OFFSET -0.269108 0.006794 -0.006027
								CHANNELS 3 Zrotation Yrotation Xrotation
								End Site
								{
									OFFSET 0.000000 0.000000 0.000000
								}
							}
						}
					}
				}
			}
		}
	}
}
MOTION
Frames: 13
Frame Time: 0.033333
2.364421 0.688708 0.991240 -94.104156 0.360854 84.423832 -2.268631 0.982460 2.896297 1.253089 -2.385417 2.894410 2.599173 14.122043 -11.377597 0.000000 -0.000000 0.000000 3.249597 0.699128 -0.966493 -2.240303 2.112143 9.416803 0.676185 -6.753561 -12.752708 0.000000 -0.000000 0.000000 -1.501500 1.631506 6.486391 -0.550489 -1.330681 6.625336 -1.348846 0.907287 -2.353800 2.209821 2.718404 -1.337933 4.125744 0.856949 8.330711 -27.667543 -5.893043 -0.381021 -54.456305 -10.974787 12.589596 6.677286 -24.940678 -3.841235 -0.730374 -6.152317 -1.665548 25.906431 8.510760 3.317967 57.775891 5.161475 19.985737 -1.936348 24.298938 7.603797 -2.116847 5.716373 3.627653 
2.365357 0.689514 0.990656 -94.308891 0.067187 83.644241 -2.565888 1.313330 3.961224 1.269854 -2.691541 2.437818 2.816239 14.246241 -11.210578 0.000000 -0.000000 0.000000 2.992132 0.748887 -0.189657 -2.305328 2.361920 9.417935 0.795864 -7.039747 -12.747084 0.000000 -0.000000 0.000000 -1.794634 1.784663 7.071948 -0.660703 -1.308810 6.701540 -1.195511 1.068756 -1.820687 2.627694 3.306894 -1.632196 3.905000 1.782829 7.793628 -27.401321 -5.715375 -1.198916 -53.657305 -10.729845 12.712680 4.975336 -26.309999 -0.989661 -3.868459 -4.684812 0.308334 25.869009 8.411238 2.683412 57.956528 5.005945 20.108045 -2.675420 24.664965 7.480852 -0.316618 5.001884 4.096960 
2.366415 0.690559 0.990664 -94.372851 0.085779 83.703817 -2.514580 1.249860 3.882671 1.191275 -2.908678 2.468898 3.086694 14.391835 -11.368014 0.000000 -0.000000 0.000000 3.127094 0.927250 -0.298473 -2.340109 2.329998 9.290921 1.026427 -7.468675 -13.149504 0.000000 -0.000000 0.000000 -1.844909 1.693060 6.892222 -0.533229 -1.338711 6.838977 -0.996065 1.093543 -1.859245 2.744040 5.103230 -1.669881 3.689322 3.957258 7.142161 -27.462663 -5.695052 -1.398268 -53.485708 -10.655396 12.615891 5.022753 -25.908937 0.303069 -6.886587 -4.337771 1.191780 25.617398 8.315881 2.721013 58.061613 5.143326 20.117290 -3.283031 24.793107 7.848280 2.508656 4.386261 4.558315 
2.367172 0.690729 0.990682 -94.278261 0.220627 83.589553 -2.553241 1.060165 3.987625 1.388279 -3.353552 2.441104 3.527541 14.564082 -12.120279 0.000000 -0.000000 0.000000 3.188309 0.693513 -0.199536 -2.212502 2.434912 9.250757 1.091175 -7.443469 -13.330194 0.000000 -0.000000 0.000000 -1.502111 1.779864 7.154195 -0.532639 -1.530902 6.992106 -0.720495 0.947936 -2.289193 2.920743 9.213625 -2.458206 3.531120 8.721526 6.990732 -27.556596 -6.112223 -1.144232 -53.070367 -9.875313 12.545795 4.141212 -25.606041 1.381129 -6.294917 -4.383014 1.098034 25.413553 8.323792 3.241240 57.856666 5.386252 19.936927 -3.348946 24.964114 7.452508 2.358701 4.472980 4.195305 
2.367903 0.690953 0.990625 -94.074382 0.192644 83.605137 -2.663322 0.831906 3.854795 1.320354 -4.000721 2.632053 3.855819 14.617852 -12.673598 0.000000 -0.000000 0.000000 3.133867 0.601700 -0.298449 -2.201443 2.372400 9.332518 1.286218 -7.545176 -13.461041 0.000000 -0.000000 0.000000 -1.413469 1.835477 7.295386 -0.573799 -1.633331 6.949304 -0.527080 0.953820 -2.451217 2.894184 12.099025 -2.989431 3.391856 11.965042 6.975200 -27.328703 -6.415026 -0.996321 -53.038316 -9.385595 12.635333 3.808519 -25.460325 2.289628 -5.841714 -4.069609 1.288118 25.244086 8.191405 3.557736 57.891939 5.545335 19.747287 -3.373561 25.019097 7.288171 2.158294 4.370754 3.980288 
2.368475 0.691121 0.990610 -93.826533 0.138879 83.635546 -2.805393 0.439778 3.787233 1.124417 -5.012359 2.739189 4.175951 14.440816 -12.963709 0.000000 -0.000000 0.000000 3.144709 0.549350 -0.396296 -2.303447 2.355204 9.430396 1.363176 -7.813054 -13.713495 0.000000 -0.000000 0.000000 -1.219914 1.989186 7.592343 -0.713167 -1.622862 6.705286 -0.344565 1.034039 -2.670632 2.831783 16.120369 -3.463760 3.424260 16.391909 6.993703 -27.290103 -7.056146 -0.759220 -52.704392 -8.714879 12.922048 3.414509 -24.767969 4.026783 -5.672208 -3.772937 1.845617 25.051047 8.133138 4.052211 58.033703 5.599484 19.553516 -3.593594 24.978511 6.999917 2.342582 4.275701 3.337689 
2.368739 0.691185 0.990550 -93.361747 0.072975 83.695006 -2.982088 -0.065569 3.694069 0.931282 -6.240349 2.876433 4.428874 14.314144 -14.028879 0.000000 -0.000000 0.000000 3.077444 0.495088 -0.498578 -2.333609 2.271881 9.539446 1.449090 -7.935785 -13.874054 0.000000 -0.000000 0.000000 -1.000074 2.155674 7.809724 -0.891411 -1.578550 6.510023 -0.165456 1.103938 -2.978018 2.752011 19.639396 -3.983788 3.302033 20.383184 7.039777 -27.152892 -7.521100 -0.514148 -52.521404 -8.050804 13.364834 2.856341 -24.395189 6.226620 -5.320683 -3.886703 2.326024 24.671334 8.118622 4.747581 58.385883 5.669035 19.408659 -3.758686 24.859498 6.855245 2.302617 4.352425 2.151617 
2.368121 0.691260 0.990705 -92.953811 -0.040260 83.619015 -3.221998 -0.408711 3.841035 0.841514 -7.291378 2.897883 4.281467 14.231289 -14.793769 0.000000 -0.000000 0.000000 2.875481 0.338108 -0.319170 -2.249883 2.156972 9.492285 1.582037 -8.031125 -13.831928 0.000000 -0.000000 0.000000 -0.832814 2.489849 7.738255 -1.059353 -1.385817 6.703365 -0.083134 1.272446 -3.175000 2.538074 22.781510 -4.296291 3.080684 23.724635 6.862401 -27.290205 -7.886749 -0.308934 -52.061668 -7.542117 13.365434 2.102126 -24.187409 7.491651 -5.917401 -3.705949 2.552631 24.641261 8.088035 5.406519 58.474717 5.772740 19.009272 -4.001346 24.598445 6.303041 2.502879 4.279045 1.645010 
2.367306 0.691634 0.990654 -92.614459 -0.065377 83.515369 -3.210448 -0.538428 4.099787 0.727233 -7.723486 2.723813 4.067332 14.211163 -15.431734 0.000000 -0.000000 0.000000 2.796889 0.239001 -0.014533 -2.231950 2.064117 9.258917 1.738874 -8.035534 -13.838944 0.000000 -0.000000 0.000000 -0.586785 3.116621 7.479250 -1.159437 -1.147033 7.262582 -0.069084 1.379083 -3.438824 2.246288 25.153607 -4.341296 2.704036 25.843709 6.256622 -27.286328 -8.175424 -0.072295 -52.012235 -7.204786 13.511364 1.888236 -24.107229 8.327220 -5.782497 -3.761276 3.286490 24.695479 8.221644 6.056662 58.454371 5.950001 18.539560 -4.178206 24.231624 5.729715 2.329195 4.431081 1.598007 
2.368068 0.692219 0.991005 -91.950731 -0.233635 83.700968 -3.280903 -0.788103 3.643325 0.441213 -8.268712 2.936407 3.436444 13.991978 -15.530341 0.000000 -0.000000 0.000000 2.559071 0.639855 -0.333846 -2.131597 1.578245 9.556173 1.849339 -8.423306 -13.924144 0.000000 -0.000000 0.000000 -0.554569 3.631140 8.117928 -1.363882 -0.530000 6.056066 -0.011542 1.524742 -3.373787 1.859888 26.681123 -4.297163 2.205053 27.416012 5.541322 -27.385907 -7.735692 -0.154697 -51.900484 -6.484913 13.909224 1.205672 -24.465480 9.695061 -5.271591 -4.191643 3.688307 24.855646 7.713011 6.433404 58.215820 5.883232 18.406842 -3.701370 24.233454 6.675714 1.824012 4.185934 2.424083 
2.367536 0.692640 0.991356 -90.965126 -0.361129 83.611999 -3.366441 -1.038475 3.552137 0.282567 -8.641496 3.186252 3.197981 13.669042 -14.533274 0.000000 -0.000000 0.000000 2.422081 0.509037 -0.262248 -2.169437 1.178822 9.893671 1.604880 -8.754878 -14.212969 0.000000 -0.000000 0.000000 -0.552651 3.856949 8.137495 -1.469226 -0.225925 6.212871 -0.101509 1.679935 -3.508146 1.498294 27.496664 -4.678207 1.840573 28.010821 5.392995 -27.647111 -7.523557 -0.058716 -51.592737 -6.180748 13.776981 0.659192 -24.724297 10.011867 -5.015015 -4.286360 3.633370 25.163098 7.722052 6.796849 57.857250 5.855024 18.360659 -3.513107 24.290430 6.840235 1.212604 4.213869 2.906293 
2.366507 0.693051 0.991291 -89.870727 -0.351792 83.562022 -3.327120 -1.052719 3.344613 0.379058 -8.648527 3.304356 3.214774 13.012407 -12.533574 0.000000 -0.000000 0.000000 2.494177 0.227266 -0.070121 -2.392476 0.575588 9.949645 1.375099 -8.980883 -14.238142 0.000000 -0.000000 0.000000 -0.270877 4.158883 8.352428 -1.691271 0.008935 5.856682 -0.238027 1.810494 -3.550128 1.138378 27.932539 -4.278979 1.374120 28.222601 4.059999 -27.562962 -7.164972 -0.390822 -51.868068 -5.759899 13.872102 0.159418 -24.655683 10.017416 -5.542893 -4.103963 3.526403 24.923562 7.592181 6.706647 58.101541 5.646476 18.436864 -3.189163 24.312775 7.172000 1.756806 4.390721 3.277106 
2.364854 0.693234 0.991174 -88.332192 -0.305654 83.443217 -3.389057 -1.280209 3.270574 0.560326 -8.923630 3.512043 3.143621 12.466285 -11.647309 0.000000 -0.000000 0.000000 2.470429 -0.336048 0.514638 -2.485846 -0.005797 9.548950 1.234399 -9.240940 -14.184239 0.000000 -0.000000 0.000000 0.090723 4.389748 8.000532 -1.859684 -0.157394 6.720356 -0.560654 1.940258 -3.846554 0.714520 28.220571 -4.191529 0.969873 28.084431 2.947056 -27.289297 -7.140760 -0.427239 -52.060496 -5.518026 13.888159 -0.242089 -24.661359 9.924102 -6.027875 -3.996857 3.977820 24.875000 7.968692 6.772382 58.041550 5.533298 18.433101 -2.732496 24.500195 7.241921 2.188027 4.309435 4.074663 
